<svg xmlns="http://www.w3.org/2000/svg" xmlns:xlink="http://www.w3.org/1999/xlink" width="40" zoomAndPan="magnify" viewBox="0 0 30 30.000001" height="40" preserveAspectRatio="xMidYMid meet" version="1.2"><defs><clipPath id="617410e355"><path d="M 2 7 L 17 7 L 17 25 L 2 25 Z M 2 7 "/></clipPath><clipPath id="f5d35f99df"><path d="M 0.484375 21.453125 L 12.222656 6.039062 L 18.070312 10.488281 L 6.332031 25.90625 Z M 0.484375 21.453125 "/></clipPath><clipPath id="8c91208f8b"><path d="M 8.9375 10.347656 C 10.746094 7.976562 13.515625 7.054688 15.132812 8.28125 C 16.746094 9.511719 16.589844 12.429688 14.785156 14.800781 L 9.597656 21.613281 C 7.792969 23.984375 5.023438 24.910156 3.40625 23.679688 C 1.792969 22.449219 1.945312 19.53125 3.753906 17.160156 Z M 8.9375 10.347656 "/></clipPath><clipPath id="586a5fadf7"><path d="M 13 4 L 28 4 L 28 22 L 13 22 Z M 13 4 "/></clipPath><clipPath id="bb4d803b5c"><path d="M 11.828125 18.625 L 23.644531 3.109375 L 29.53125 7.589844 L 17.714844 23.105469 Z M 11.828125 18.625 "/></clipPath><clipPath id="e0cda30267"><path d="M 20.339844 7.449219 C 22.15625 5.0625 24.949219 4.128906 26.574219 5.367188 C 28.199219 6.605469 28.042969 9.542969 26.226562 11.929688 L 21.003906 18.785156 C 19.1875 21.171875 16.398438 22.105469 14.773438 20.867188 C 13.148438 19.628906 13.300781 16.691406 15.121094 14.304688 Z M 20.339844 7.449219 "/></clipPath><clipPath id="63bb170fc6"><path d="M 7.578125 7.476562 L 22.195312 7.476562 L 22.195312 22.09375 L 7.578125 22.09375 Z M 7.578125 7.476562 "/></clipPath><clipPath id="c7924b75d2"><path d="M 14.886719 7.476562 C 10.851562 7.476562 7.578125 10.746094 7.578125 14.785156 C 7.578125 18.820312 10.851562 22.09375 14.886719 22.09375 C 18.921875 22.09375 22.195312 18.820312 22.195312 14.785156 C 22.195312 10.746094 18.921875 7.476562 14.886719 7.476562 Z M 14.886719 7.476562 "/></clipPath><clipPath id="8beb48368f"><path d="M 7 7 L 20 7 L 20 21 L 7 21 Z M 7 7 "/></clipPath><clipPath id="721d7879ca"><path d="M 19.246094 8.882812 L 10.390625 20.566406 L 4.546875 16.140625 L 13.402344 4.457031 Z M 19.246094 8.882812 "/></clipPath><clipPath id="069d47cffd"><path d="M 8.976562 10.296875 C 11.421875 7.070312 16.019531 6.4375 19.246094 8.882812 L 10.390625 20.566406 C 7.164062 18.121094 6.53125 13.523438 8.976562 10.296875 Z M 8.976562 10.296875 "/></clipPath></defs><g id="c53c18b431"><g clip-rule="nonzero" clip-path="url(#617410e355)"><g clip-rule="nonzero" clip-path="url(#f5d35f99df)"><g clip-rule="nonzero" clip-path="url(#8c91208f8b)"><path style=" stroke:none;fill-rule:nonzero;fill:#f59e0b;fill-opacity:1;" d="M 0.484375 21.453125 L 12.203125 6.058594 L 18.050781 10.511719 L 6.332031 25.90625 Z M 0.484375 21.453125 "/></g></g></g><g clip-rule="nonzero" clip-path="url(#586a5fadf7)"><g clip-rule="nonzero" clip-path="url(#bb4d803b5c)"><g clip-rule="nonzero" clip-path="url(#e0cda30267)"><path style=" stroke:none;fill-rule:nonzero;fill:#667eea;fill-opacity:1;" d="M 11.828125 18.625 L 23.628906 3.128906 L 29.511719 7.613281 L 17.714844 23.105469 Z M 11.828125 18.625 "/></g></g></g><g clip-rule="nonzero" clip-path="url(#63bb170fc6)"><g clip-rule="nonzero" clip-path="url(#c7924b75d2)"><path style=" stroke:none;fill-rule:nonzero;fill:#764ba2;fill-opacity:1;" d="M 7.578125 7.476562 L 22.195312 7.476562 L 22.195312 22.09375 L 7.578125 22.09375 Z M 7.578125 7.476562 "/></g></g><g clip-rule="nonzero" clip-path="url(#8beb48368f)"><g clip-rule="nonzero" clip-path="url(#721d7879ca)"><g clip-rule="nonzero" clip-path="url(#069d47cffd)"><path style=" stroke:none;fill-rule:nonzero;fill:#e0b1cb;fill-opacity:1;" d="M 19.246094 8.882812 L 10.390625 20.566406 L 4.546875 16.140625 L 13.402344 4.457031 Z M 19.246094 8.882812 "/></g></g></g></g></svg>